<svg height="70" width="167.1314" xmlns="http://www.w3.org/2000/svg">
<rect fill="#fff" height="70" width="167.1314" x="0" y="0"/>
<path d="M17.71605 23.574074L17.71605 30.209877L22.433863 30.209877L22.433863 31.753086L17.71605 31.753086L17.71605 44.848324Q17.71605 46.810402,18.27822 47.493828Q18.84039 48.177246,19.722221 48.177246Q20.449736 48.177246,21.133158 47.725307Q21.816578 47.27337,22.191359 46.391533L23.051147 46.391533Q22.279541 48.552025,20.868607 49.643295Q19.457672 50.734566,17.958553 50.734566Q16.944445 50.734566,15.974426 50.172398Q15.00441 49.61023,14.541447 48.56305Q14.078484 47.515873,14.078484 45.333332L14.078484 31.753086L10.881834 31.753086L10.881834 31.025574Q12.094357 30.540564,13.361993 29.383158Q14.629629 28.22575,15.621693 26.638449Q16.128748 25.800705,17.032627 23.574074L17.71605 23.574074ZM28.635803 37.834213Q28.613758 42.33157,30.818344 44.88889Q33.02293 47.446205,35.99912 47.446205Q37.983246 47.446205,39.449295 46.35494Q40.915344 45.263668,41.90741 42.618164L42.59083 43.059082Q42.12787 46.079365,39.901237 48.559525Q37.674606 51.03968,34.323635 51.03968Q30.68607 51.03968,28.09568 48.206787Q25.505293 45.373898,25.505293 40.589947Q25.505293 35.409172,28.161818 32.51014Q30.818344 29.61111,34.83069 29.61111Q38.225754 29.61111,40.40829 31.848764Q42.59083 34.08642,42.59083 37.834213L28.635803 37.834213ZM28.635803 36.555557L37.983246 36.555557Q37.873016 34.61552,37.520283 33.82187Q36.96914 32.587303,35.87787 31.881834Q34.7866 31.176367,33.596123 31.176367Q31.766315 31.176367,30.322311 32.598324Q28.878307 34.020283,28.635803 36.555557ZM44.145508 29.84568L53.64727 29.84568L53.64727 30.661377Q52.743393 30.661377,52.379635 30.970018Q52.015877 31.27866,52.015877 31.785715Q52.015877 32.314816,52.787483 33.417107Q53.029987 33.769844,53.515 34.5194L54.94798 36.812172L56.601418 34.5194Q58.18872 32.33686,58.18872 31.76367Q58.18872 31.300707,57.81394 30.981041Q57.43916 30.661377,56.601418 30.661377L56.601418 29.84568L63.43563 29.84568L63.43563 30.661377Q62.355385 30.727514,61.561737 31.256615Q60.481487 32.006172,58.60759 34.5194L55.85186 38.201057L60.87831 45.4321Q62.730164 48.099648,63.523815 48.63977Q64.31747 49.179893,65.57408 49.246033L65.57408 50.03968L56.05027 50.03968L56.05027 49.246033Q57.042336 49.246033,57.59348 48.805115Q58.012352 48.496475,58.012352 47.989418Q58.012352 47.48236,56.601418 45.4321L53.64727 41.11111L50.406532 45.4321Q48.907413 47.43827,48.907413 47.81305Q48.907413 48.34215,49.403446 48.772045Q49.899475 49.201942,50.89154 49.246033L50.89154 50.03968L44.299828 50.03968L44.299828 49.246033Q45.09348 49.135803,45.688717 48.694885Q46.52646 48.055557,48.51059 45.4321L52.743393 39.810406L48.907413 34.254852Q47.27602 31.873898,46.383163 31.267637Q45.490307 30.661377,44.145508 30.661377L44.145508 29.84568ZM74.26985 23.574074L74.26985 30.209877L78.98766 30.209877L78.98766 31.753086L74.26985 31.753086L74.26985 44.848324Q74.26985 46.810402,74.83202 47.493828Q75.394196 48.177246,76.276024 48.177246Q77.00354 48.177246,77.68696 47.725307Q78.370384 47.27337,78.74516 46.391533L79.60495 46.391533Q78.83334 48.552025,77.42241 49.643295Q76.011475 50.734566,74.51236 50.734566Q73.498245 50.734566,72.52823 50.172398Q71.55821 49.61023,71.09525 48.56305Q70.632286 47.515873,70.632286 45.333332L70.632286 31.753086L67.43564 31.753086L67.43564 31.025574Q68.64816 30.540564,69.915794 29.383158Q71.18343 28.22575,72.1755 26.638449Q72.68255 25.800705,73.58643 23.574074L74.26985 23.574074ZM82.36773 38.64462L93.76544 38.64462L93.76544 41.97354L82.36773 41.97354L82.36773 38.64462ZM109.637566 29.655205L109.637566 36.53351L108.91005 36.53351Q108.07231 33.29277,106.76058 32.12434Q105.44885 30.95591,103.42063 30.95591Q101.877426 30.95591,100.92945 31.771606Q99.98148 32.587303,99.98148 33.57937Q99.98148 34.813934,100.68695 35.69577Q101.37037 36.599648,103.46472 37.613758L106.68342 39.179012Q111.15873 41.361553,111.15873 44.932983Q111.15873 47.688713,109.07539 49.37522Q106.992065 51.06173,104.4127 51.06173Q102.560844 51.06173,100.17989 50.400352Q99.45238 50.179893,98.98942 50.179893Q98.48236 50.179893,98.19576 50.753086L97.468254 50.753086L97.468254 43.54409L98.19576 43.54409Q98.81305 46.630512,100.55467 48.19577Q102.296295 49.761024,104.45679 49.761024Q105.97795 49.761024,106.93695 48.868164Q107.89594 47.97531,107.89594 46.718697Q107.89594 45.197533,106.82672 44.161377Q105.75749 43.12522,102.560844 41.537918Q99.3642 39.95062,98.37213 38.67196Q97.380066 37.415344,97.380066 35.497356Q97.380066 33.006172,99.08862 31.330688Q100.79718 29.655205,103.50882 29.655205Q104.699295 29.655205,106.39683 30.162258Q107.521164 30.492947,107.89594 30.492947Q108.24867 30.492947,108.44709 30.338625Q108.6455 30.184305,108.91005 29.655205L109.637566 29.655205ZM112.274254 29.84568L121.77602 29.84568L121.77602 30.661377L121.15874 30.661377Q120.29895 30.661377,119.84701 31.080248Q119.395065 31.499119,119.395065 32.204586Q119.395065 32.97619,119.85803 34.034393L124.553795 45.189594L129.2716 33.61552Q129.77867 32.38095,129.77867 31.741623Q129.77867 31.432981,129.6023 31.234568Q129.35979 30.903881,128.98502 30.782629Q128.61023 30.661377,127.46385 30.661377L127.46385 29.84568L134.05556 29.84568L134.05556 30.661377Q132.90918 30.74956,132.46826 31.12434Q131.69666 31.785715,131.07938 33.328926L123.91447 50.656967L123.01059 50.656967L115.80159 33.61552Q115.31658 32.425045,114.87566 31.906967Q114.434746 31.38889,113.75133 31.036156Q113.37655 30.837744,112.274254 30.661377L112.274254 29.84568ZM141.4127 43.08113Q139.56085 42.17725,138.56879 40.556877Q137.57674 38.93651,137.57674 36.974426Q137.57674 33.97619,139.83643 31.815697Q142.09613 29.655205,145.62347 29.655205Q148.51147 29.655205,150.62788 31.06614L154.90477 31.06614Q155.85275 31.06614,156.00706 31.121254Q156.16139 31.176369,156.22752 31.308643Q156.3598 31.507055,156.3598 32.01411Q156.3598 32.587303,156.24957 32.807762Q156.18344 32.91799,156.0181 32.984127Q155.85275 33.050266,154.90477 33.050266L152.28131 33.050266Q153.51588 34.637566,153.51588 37.106705Q153.51588 39.928574,151.3554 41.934746Q149.1949 43.940918,145.55733 43.940918Q144.05821 43.940918,142.49295 43.5Q141.52293 44.33774,141.18123 44.96605Q140.83952 45.594357,140.83952 46.03527Q140.83952 46.410053,141.20328 46.762787Q141.56703 47.11552,142.62523 47.269844Q143.24252 47.358025,145.71165 47.424164Q150.2531 47.534393,151.5979 47.732803Q153.64816 48.0194,154.8717 49.253967Q156.09525 50.488537,156.09525 52.296295Q156.09525 54.787476,153.75839 56.970016Q150.31923 60.188713,144.78572 60.188713Q140.53087 60.188713,137.59877 58.27072Q135.94534 57.16843,135.94534 55.97795Q135.94534 55.448853,136.18784 54.919754Q136.56262 54.104057,137.73105 52.649033Q137.88538 52.450615,139.97974 50.268078Q138.83334 49.584656,138.35936 49.044533Q137.88538 48.50441,137.88538 47.820988Q137.88538 47.049385,138.51369 46.01323Q139.14198 44.977074,141.4127 43.08113ZM145.24869 30.713406Q143.6173 30.713406,142.515 32.01411Q141.4127 33.314816,141.4127 36.00441Q141.4127 39.487656,142.91183 41.405643Q144.05821 42.860672,145.82188 42.860672Q147.49736 42.860672,148.5776 41.604057Q149.65787 40.347443,149.65787 37.65785Q149.65787 34.152557,148.13669 32.168434Q147.01236 30.713406,145.24869 30.713406ZM141.19225 50.444443Q140.1561 51.568783,139.627 52.538803Q139.0979 53.50882,139.0979 54.324516Q139.0979 55.382713,140.37656 56.17637Q142.58115 57.543213,146.7478 57.543213Q150.71606 57.543213,152.60098 56.143295Q154.4859 54.743385,154.4859 53.156082Q154.4859 52.0097,153.36157 51.52469Q152.21518 51.03968,148.82011 50.9515Q143.8598 50.81922,141.19225 50.444443Z" fill="#000"/>
</svg>